<?xml version="1.0" encoding="utf-8"?>
<!-- Generator: Adobe Illustrator 24.0.3, SVG Export Plug-In . SVG Version: 6.00 Build 0)  -->
<svg version="1.1" id="Ebene_1" xmlns="http://www.w3.org/2000/svg" xmlns:xlink="http://www.w3.org/1999/xlink" x="0px" y="0px"
	 viewBox="0 0 230.4 134.4" style="enable-background:new 0 0 230.4 134.4;" xml:space="preserve">
<style type="text/css">
	.st0{fill:#FFFFFF;}
</style>
<g>
	<g>
		<g>
			<path class="st0" d="M62.1,56.4c-3.1-4.3-7.2-6.5-12.3-6.5c-2.7,0-5.1,0.5-7.2,1.6c-2.1,1-3.9,2.5-5.3,4.4
				c-1.5,1.9-2.6,4.2-3.3,6.8c-0.8,2.6-1.1,5.5-1.1,8.6c0,3.5,0.4,6.6,1.3,9.3c0.9,2.7,2.1,5.1,3.7,7c1.6,1.9,3.4,3.4,5.6,4.4
				c2.2,1,4.6,1.5,7.2,1.5c5.1,0,9-2,11.5-6.1l0.1,5h10.5V35.9H62.1V56.4z M59.8,81.3c-1.8,2.2-4,3.3-6.6,3.3c-2.7,0-5-1.2-6.7-3.5
				c-1.7-2.3-2.6-5.3-2.6-9c0-8.5,3.1-12.8,9.4-12.8c6.1,0,9.2,4.5,9.2,13.4C62.5,76.2,61.6,79.1,59.8,81.3 M77.4,46.1h10.9V35.9
				H77.4V46.1z M77.4,92.3h10.9V51H77.4V92.3z M132.1,51h-11.5l-8.7,27.3L103.2,51H91l14.8,41.3h11.4L132.1,51z M163.5,54.2
				c-1.4-1.4-3.2-2.4-5.5-3.1c-2.3-0.7-5-1.1-8.3-1.1c-3.3,0-6.1,0.4-8.4,1.1c-2.3,0.7-4.2,1.7-5.6,3c-1.4,1.3-2.5,2.8-3.1,4.6
				c-0.6,1.8-1,3.8-1.1,5.9h10.2c0.3-1.8,1-3.3,2.1-4.5c1.1-1.1,2.9-1.7,5.4-1.7c2.1,0,3.8,0.4,5.1,1.1c1.3,0.8,1.9,1.8,1.9,3.1
				c0,1.5-0.5,2.5-1.4,3.1c-1,0.6-2.8,1.2-5.5,1.6c-2.7,0.4-5.3,0.8-7.6,1.3c-2.3,0.5-4.3,1.2-6,2.2c-1.7,1-3,2.4-3.9,4.2
				c-1,1.8-1.4,4.1-1.4,7.1c0,3.4,1.1,6.1,3.3,8.2c2.2,2.1,5.7,3.2,10.5,3.2c2.8,0,5.3-0.4,7.4-1.3c2.1-0.9,3.8-2,5.1-3.5
				c0.1,1.4,0.3,2.6,0.7,3.7h10.2V66.2c0-2.6-0.3-4.9-0.9-6.9C165.9,57.3,164.9,55.5,163.5,54.2 M156.4,76.6c0,1.2-0.3,2.4-0.8,3.5
				c-0.5,1.1-1.2,2-2.1,2.9c-0.9,0.8-1.9,1.5-3.1,1.9c-1.2,0.5-2.5,0.7-3.9,0.7c-3.5,0-5.3-1.5-5.3-4.6c0-1.8,0.6-3.2,1.8-4.1
				c1.2-0.9,3.3-1.7,6.5-2.4c2-0.4,3.6-0.8,4.6-1.1c1.1-0.3,1.9-0.8,2.4-1.3L156.4,76.6z M190,60.1c-1,0.6-2.1,0.9-3.4,0.9
				c-1.9,0-3.5-0.7-4.7-2c-1.2-1.3-1.9-3.1-2-5.4h20.6c0-6-1.2-10.4-3.6-13.4c-2.4-3-5.9-4.4-10.5-4.4c-2.3,0-4.4,0.4-6.1,1.1
				c-1.8,0.7-3.3,1.7-4.5,3.1c-1.2,1.3-2.2,2.9-2.8,4.8c-0.6,1.9-1,4-1,6.3c0,10.9,5,16.3,15,16.3c3.2,0,6-0.8,8.3-2.5
				c2.3-1.7,3.9-4,4.9-7.1H192C191.7,58.7,191,59.5,190,60.1 M182.1,43.7c1.2-1.2,2.5-1.7,4.1-1.7c0.8,0,1.5,0.1,2.3,0.4
				c0.7,0.3,1.4,0.7,1.9,1.2c0.6,0.5,1,1.2,1.4,2.1c0.3,0.8,0.5,1.8,0.6,2.9h-12.2C180.3,46.5,181,44.9,182.1,43.7"/>
		</g>
		<rect x="172.3" y="71" class="st0" width="28.3" height="5.1"/>
	</g>
</g>
</svg>
